<svg xmlns="http://www.w3.org/2000/svg" xmlns:xlink="http://www.w3.org/1999/xlink" width="124" height="40" viewBox="0 0 124 40"><defs><style>.a{clip-path:url(#a);}</style><clipPath id="a"><path d="M0,40V0H124V40Z"/></clipPath></defs><g class="a"><g transform="translate(0.001)"><path d="M0,40V0H124V40ZM25.862,25.1H15.93V8.441H11.5V29.106H25.862ZM40.99,15.537A7.986,7.986,0,0,0,34.7,12.931a8.148,8.148,0,0,0-8.424,8.224c0,4.8,3.631,8.224,8.909,8.224a10.475,10.475,0,0,0,7.394-3.039l-2.763-2.122A6.638,6.638,0,0,1,35.255,25.9a4.86,4.86,0,0,1-3.526-1.287L42.9,19.981a8.622,8.622,0,0,0-1.907-4.44Zm19.5,3.71a6.126,6.126,0,0,0-6.464-6.316,6.613,6.613,0,0,0-5.185,2.547V13.193H44.466V29.1h4.371V20.047a3.411,3.411,0,0,1,3.6-3.363,3.5,3.5,0,0,1,3.677,3.363V29.1h4.371V19.247Zm10.307-6.316a8.23,8.23,0,1,0,8.521,8.224A8.317,8.317,0,0,0,70.792,12.931Zm20.739.269L87.583,24.034,83.63,13.2H78.643l6.545,15.9h4.786l6.545-15.9Zm12.892-.269a8.23,8.23,0,1,0,8.521,8.224,8.317,8.317,0,0,0-8.521-8.224Zm0,12.7a4.333,4.333,0,0,1-4.27-4.479,4.186,4.186,0,0,1,4.208-4.479,4.333,4.333,0,0,1,4.27,4.479A4.217,4.217,0,0,1,104.424,25.63Zm-33.631,0a4.333,4.333,0,0,1-4.27-4.479,4.187,4.187,0,0,1,4.212-4.479A4.333,4.333,0,0,1,75,21.151,4.217,4.217,0,0,1,70.792,25.63ZM31.426,17.991a4.064,4.064,0,0,1,3.36-1.584,3.658,3.658,0,0,1,3.387,2.224L30.539,21.8a5.12,5.12,0,0,1,.883-3.808Z"/></g></g></svg>