<svg xmlns="http://www.w3.org/2000/svg" width="16" height="16" viewBox="0 0 16 16"><path d="M13.472,0H2.528A2.531,2.531,0,0,0,0,2.528V13.472A2.531,2.531,0,0,0,2.528,16H13.472A2.531,2.531,0,0,0,16,13.472V2.528A2.531,2.531,0,0,0,13.472,0Zm.843,13.472a.844.844,0,0,1-.843.843H2.528a.844.844,0,0,1-.843-.843V2.528a.844.844,0,0,1,.843-.843H13.472a.844.844,0,0,1,.843.843V13.472Z"/><path d="M11.1,4.737a1.011,1.011,0,0,0-.72.3L6.619,8.807l-1-1A1.017,1.017,0,0,0,4.177,9.242L5.9,10.965a1.017,1.017,0,0,0,1.439,0l4.484-4.491A1.017,1.017,0,0,0,11.1,4.737Z"/></svg>