<?xml version="1.0" encoding="utf-8"?>
<!-- Generator: Adobe Illustrator 25.2.3, SVG Export Plug-In . SVG Version: 6.00 Build 0)  -->
<svg version="1.1" id="Layer_1" xmlns="http://www.w3.org/2000/svg" xmlns:xlink="http://www.w3.org/1999/xlink" x="0px" y="0px"
	 viewBox="0 0 33 23" style="enable-background:new 0 0 33 23;" xml:space="preserve">
<style type="text/css">
	.st0{fill-rule:evenodd;clip-rule:evenodd;fill:#0D5C91;}
</style>
<g id="Page-1">
	<g id="Splitter---Landing-_x28_360_x29_" transform="translate(-102.000000, -190.000000)">
		<g id="filter-facet-button" transform="translate(15.000000, 179.000000)">
			<g id="filter-icon" transform="translate(87.226562, 11.000000)">
				<path id="Fill-1" class="st0" d="M16,4.7h3V2.1h-3V4.7z M0,3.4c0-0.5,0.4-0.9,1-0.9h13V1.3c0-0.5,0.4-0.9,1-0.9h5
					c0.6,0,1,0.4,1,0.9v1.3h10c0.6,0,1,0.4,1,0.9c0,0.5-0.4,0.9-1,0.9H21v1.3c0,0.5-0.4,0.9-1,0.9h-5c-0.6,0-1-0.4-1-0.9V4.3H1
					C0.4,4.3,0,3.9,0,3.4L0,3.4z"/>
				<path id="Fill-3" class="st0" d="M5,20.7h3v-2.6H5V20.7z M0,19.4c0-0.5,0.4-0.9,1-0.9h2v-1.3c0-0.5,0.4-0.9,1-0.9h5
					c0.6,0,1,0.4,1,0.9v1.3h21c0.6,0,1,0.4,1,0.9c0,0.5-0.4,0.9-1,0.9H10v1.3c0,0.5-0.4,0.9-1,0.9H4c-0.6,0-1-0.4-1-0.9v-1.3H1
					C0.4,20.3,0,19.9,0,19.4L0,19.4z"/>
				<path id="Fill-4" class="st0" d="M24,12.7h3v-2.6h-3V12.7z M0,11.4c0-0.5,0.4-0.9,1-0.9h21V9.3c0-0.5,0.4-0.9,1-0.9h5
					c0.6,0,1,0.4,1,0.9v1.3h2c0.6,0,1,0.4,1,0.9s-0.4,0.9-1,0.9h-2v1.3c0,0.5-0.4,0.9-1,0.9h-5c-0.6,0-1-0.4-1-0.9v-1.3H1
					C0.4,12.3,0,11.9,0,11.4L0,11.4z"/>
			</g>
		</g>
	</g>
</g>
</svg>
