<svg xmlns="http://www.w3.org/2000/svg" width="15.394" height="16" viewBox="0 0 15.394 16"><g transform="translate(0 0)"><g transform="translate(-0.022)"><path d="M5.8,11.96a2.02,2.02,0,1,0,2.02,2.02A2.022,2.022,0,0,0,5.8,11.96Zm0,2.828a.808.808,0,1,1,.808-.808A.809.809,0,0,1,5.8,14.788Z"/><path d="M11.779,11.96a2.02,2.02,0,1,0,2.02,2.02A2.022,2.022,0,0,0,11.779,11.96Zm0,2.828a.808.808,0,1,1,.808-.808A.809.809,0,0,1,11.779,14.788Z"/><path d="M15.284,3.946a.606.606,0,0,0-.474-.229H4.2L3.647.933A.606.606,0,0,0,3.162.455L.737.01A.606.606,0,1,0,.519,1.2l2.019.37,1.779,8.99a.606.606,0,0,0,.595.488H13.4a.606.606,0,0,0,.59-.47L15.4,4.46A.606.606,0,0,0,15.284,3.946Zm-2.37,5.892h-7.5L4.437,4.93h9.61Z"/></g></g></svg>