<svg xmlns="http://www.w3.org/2000/svg" width="12.945" height="16" viewBox="0 0 12.945 16"><g transform="translate(-84.783 -1.25)"><g transform="translate(84.756 1.25)"><path d="M11.811,2.782A6.37,6.37,0,0,0,6.5,0,6.37,6.37,0,0,0,1.189,2.782,6.461,6.461,0,0,0,.437,8.735a5.088,5.088,0,0,0,.938,1.548l4.7,5.52a.559.559,0,0,0,.852,0l4.7-5.518a5.093,5.093,0,0,0,.938-1.546A6.462,6.462,0,0,0,11.811,2.782Zm-.3,5.565a3.991,3.991,0,0,1-.738,1.209l0,0L6.5,14.578,2.224,9.555a3.993,3.993,0,0,1-.739-1.212A5.345,5.345,0,0,1,2.11,3.418a5.266,5.266,0,0,1,4.39-2.3,5.265,5.265,0,0,1,4.39,2.3A5.346,5.346,0,0,1,11.514,8.347Z"/><path d="M6.5,3.319A3.133,3.133,0,1,0,9.633,6.452,3.136,3.136,0,0,0,6.5,3.319Zm0,5.147A2.014,2.014,0,1,1,8.514,6.452,2.016,2.016,0,0,1,6.5,8.466Z"/></g></g></svg>