<svg xmlns="http://www.w3.org/2000/svg" xmlns:xlink="http://www.w3.org/1999/xlink" width="17.17" height="15.955" viewBox="0 0 17.17 15.955"><defs><style>.a{clip-path:url(#a);}</style><clipPath id="a"><path d="M8.141,15.764,1.4,8.659a5.266,5.266,0,0,1,0-7.16c.078-.085.159-.166.244-.244A4.694,4.694,0,0,1,8.283,1.5l.3.32.3-.32a4.691,4.691,0,0,1,6.876,0,5.264,5.264,0,0,1,0,7.16l-6.734,7.1-.023.023a.614.614,0,0,1-.868-.023Z" transform="translate(0 0.032)"/></clipPath></defs><g transform="translate(0 -0.032)"><g transform="translate(0)"><g class="a"><path d="M15.766,1.532a4.691,4.691,0,0,0-6.876,0l-.3.32-.3-.32a4.7,4.7,0,0,0-6.635-.244q-.126.117-.244.244a5.266,5.266,0,0,0,0,7.16l6.736,7.1a.614.614,0,0,0,.867.024l.024-.024,6.734-7.1A5.265,5.265,0,0,0,15.766,1.532Zm-.888,6.314h0L8.586,14.482,2.295,7.846a4.024,4.024,0,0,1,0-5.471,3.468,3.468,0,0,1,4.9-.2q.1.095.2.2l.748.789a.632.632,0,0,0,.891,0l.748-.789a3.468,3.468,0,0,1,4.9-.2q.1.095.2.2A3.987,3.987,0,0,1,14.878,7.846Z"/></g></g></g></svg>