<svg xmlns="http://www.w3.org/2000/svg" width="16" height="16" viewBox="0 0 16 16"><path d="M3.75,6.344H2.515a5.5,5.5,0,0,1,10.645-1.5.625.625,0,0,0,1.172-.434A6.751,6.751,0,0,0,1.251,6.68,2.5,2.5,0,0,0,0,8.844v2.125a2.5,2.5,0,0,0,2.5,2.5H3.75a.625.625,0,0,0,.625-.625V6.969A.625.625,0,0,0,3.75,6.344Zm-.625,5.875H2.5a1.251,1.251,0,0,1-1.25-1.25V8.844A1.251,1.251,0,0,1,2.5,7.594h.625Z"/><path d="M13.5,6.344H12.25a.625.625,0,0,0-.625.625V13.5a.626.626,0,0,1-.625.625H9.094v.02a1.25,1.25,0,1,0,0,1.21v.02H11A1.877,1.877,0,0,0,12.875,13.5v-.031H13.5a2.5,2.5,0,0,0,2.5-2.5V8.844A2.5,2.5,0,0,0,13.5,6.344Zm1.25,4.625a1.251,1.251,0,0,1-1.25,1.25h-.625V7.594H13.5a1.251,1.251,0,0,1,1.25,1.25Z"/></svg>